# xmcd
#
# Track frame offsets:
#	150
#	36332
#	80946
#	119751
#	160609
#	188537
#	234669
#
# Disc length: 3414 seconds
#
# Revision: 1
# Processed by: cddbd v1.5.2PL0 Copyright (c) Steve Scherf et al.
# Submitted via: audiograbber 1.83.01
#
DISCID=590d5407
DTITLE=Grateful Dead - 95-05-21 Sam Boyd Silver Bowl, Las Vegas NV
DYEAR=1900
DGENRE=
TTITLE0=Jack Straw
TTITLE1=West LA Fadeaway
TTITLE2=Little Red Rooster
TTITLE3=Ramble On Rose
TTITLE4=Tom Thumb's Blues
TTITLE5=So Many Roads
TTITLE6=Promised Land
EXTD=
EXTT0=
EXTT1=
EXTT2=
EXTT3=
EXTT4=
EXTT5=
EXTT6=
PLAYORDER=
